<mxfile host="app.diagrams.net" modified="2022-06-15T21:54:53.286Z" agent="5.0 (Windows NT 10.0; Win64; x64) AppleWebKit/537.36 (KHTML, like Gecko) Chrome/102.0.0.0 Safari/537.36" etag="ZEyVZ-QnXkkvSUSqjWdl" version="20.0.1" type="github">
  <diagram id="zcutRNlkaGukFSQf7bDl" name="Page-1">
    <mxGraphModel dx="1398" dy="740" grid="1" gridSize="10" guides="1" tooltips="1" connect="1" arrows="1" fold="1" page="1" pageScale="1" pageWidth="850" pageHeight="1100" math="0" shadow="0">
      <root>
        <mxCell id="0" />
        <mxCell id="1" parent="0" />
        <mxCell id="4GCjVCfZrb_K5nvkpj6K-1" value="EXPRESS" style="rounded=0;whiteSpace=wrap;html=1;strokeColor=#80FF00;strokeWidth=7;fontSize=17;" vertex="1" parent="1">
          <mxGeometry x="70" y="380" width="220" height="50" as="geometry" />
        </mxCell>
        <mxCell id="4GCjVCfZrb_K5nvkpj6K-2" value="HTTP" style="rounded=0;whiteSpace=wrap;html=1;strokeColor=#80FF00;strokeWidth=7;fontSize=17;" vertex="1" parent="1">
          <mxGeometry x="315" y="290" width="80" height="50" as="geometry" />
        </mxCell>
        <mxCell id="4GCjVCfZrb_K5nvkpj6K-3" value="JSON" style="rounded=0;whiteSpace=wrap;html=1;strokeColor=#80FF00;strokeWidth=7;fontSize=17;" vertex="1" parent="1">
          <mxGeometry x="335" y="380" width="85" height="50" as="geometry" />
        </mxCell>
        <mxCell id="4GCjVCfZrb_K5nvkpj6K-4" value="CLIENT" style="ellipse;whiteSpace=wrap;html=1;fontSize=17;strokeColor=#00FFFF;strokeWidth=7;" vertex="1" parent="1">
          <mxGeometry x="640" y="190" width="140" height="80" as="geometry" />
        </mxCell>
        <mxCell id="4GCjVCfZrb_K5nvkpj6K-5" value="CLIENT" style="ellipse;whiteSpace=wrap;html=1;fontSize=17;strokeColor=#00FFFF;strokeWidth=7;" vertex="1" parent="1">
          <mxGeometry x="640" y="300" width="140" height="80" as="geometry" />
        </mxCell>
        <mxCell id="4GCjVCfZrb_K5nvkpj6K-6" value="CLIENT" style="ellipse;whiteSpace=wrap;html=1;fontSize=17;strokeColor=#00FFFF;strokeWidth=7;" vertex="1" parent="1">
          <mxGeometry x="640" y="410" width="140" height="80" as="geometry" />
        </mxCell>
        <mxCell id="4GCjVCfZrb_K5nvkpj6K-7" value="CLIENT" style="ellipse;whiteSpace=wrap;html=1;fontSize=17;strokeColor=#00FFFF;strokeWidth=7;" vertex="1" parent="1">
          <mxGeometry x="640" y="520" width="140" height="80" as="geometry" />
        </mxCell>
        <mxCell id="4GCjVCfZrb_K5nvkpj6K-9" value="THREES" style="rounded=0;whiteSpace=wrap;html=1;strokeColor=#80FF00;strokeWidth=7;fontSize=17;" vertex="1" parent="1">
          <mxGeometry x="310" y="470" width="85" height="50" as="geometry" />
        </mxCell>
      </root>
    </mxGraphModel>
  </diagram>
</mxfile>
